<svg width="14" height="14" viewBox="0 0 14 14" fill="none" xmlns="http://www.w3.org/2000/svg">
<path d="M7.11506 5.30833H11.2292C10.9742 4.64547 10.5848 4.07628 10.0609 3.60076C9.53696 3.12525 8.92985 2.79999 8.23958 2.62499L6.89791 4.91458C6.8493 5.00208 6.84687 5.08958 6.89062 5.17708C6.93437 5.26458 7.00918 5.30833 7.11506 5.30833ZM5.11874 6.03749C5.17708 6.12499 5.25972 6.16874 5.36666 6.16874C5.47361 6.16874 5.55138 6.12499 5.59999 6.03749L7.64166 2.50745C7.53472 2.4883 7.42777 2.47391 7.32083 2.46429C7.21388 2.45476 7.10694 2.44999 6.99999 2.44999C6.37262 2.44999 5.78797 2.56423 5.24606 2.7927C4.70424 3.02117 4.2243 3.33472 3.80624 3.73333L5.11874 6.03749ZM2.59539 8.13749H5.25087C5.35723 8.13749 5.43472 8.09374 5.48333 8.00624C5.53194 7.91874 5.52766 7.82697 5.47049 7.73091L3.42708 4.18541C3.11597 4.56458 2.87534 4.99479 2.7052 5.47604C2.53506 5.95729 2.44999 6.46658 2.44999 7.00393C2.44999 7.20547 2.46215 7.39617 2.48645 7.57604C2.51076 7.7559 2.54707 7.94305 2.59539 8.13749ZM5.77499 11.375L7.08749 9.07083C7.13611 8.98333 7.13854 8.89583 7.09479 8.80833C7.05104 8.72083 6.97622 8.67708 6.87035 8.67708H2.78541C3.04033 9.33994 3.42975 9.90913 3.95368 10.3846C4.47761 10.8602 5.08472 11.1903 5.77499 11.375ZM6.99999 11.55C7.64166 11.55 8.23258 11.4325 8.77274 11.1974C9.31281 10.9622 9.79134 10.6471 10.2083 10.2521L8.88124 7.96249C8.83263 7.86527 8.75588 7.81666 8.65097 7.81666C8.54597 7.81666 8.46489 7.86449 8.40772 7.96016L6.35833 11.4921C6.46527 11.5113 6.56979 11.5257 6.67187 11.5354C6.77395 11.5451 6.88333 11.55 6.99999 11.55ZM10.5875 9.79999C10.8792 9.42083 11.1125 8.99062 11.2875 8.50937C11.4625 8.02812 11.55 7.52499 11.55 6.99999C11.55 6.79836 11.538 6.60396 11.514 6.41681C11.4899 6.22956 11.4537 6.03992 11.4056 5.84791H8.76458C8.65763 5.84791 8.57985 5.89409 8.53124 5.98645C8.48263 6.07881 8.48263 6.16874 8.53124 6.25624L10.5875 9.79999ZM6.99999 12.6C6.23466 12.6 5.51133 12.453 4.82999 12.159C4.14866 11.865 3.55366 11.4637 3.04499 10.955C2.53633 10.4463 2.13499 9.85133 1.84099 9.16999C1.54699 8.48866 1.39999 7.76533 1.39999 6.99999C1.39999 6.22533 1.54699 5.49966 1.84099 4.82299C2.13499 4.14633 2.53633 3.55366 3.04499 3.04499C3.55366 2.53633 4.14866 2.13499 4.82999 1.84099C5.51133 1.54699 6.23466 1.39999 6.99999 1.39999C7.77466 1.39999 8.50033 1.54699 9.17699 1.84099C9.85366 2.13499 10.4463 2.53633 10.955 3.04499C11.4637 3.55366 11.865 4.14633 12.159 4.82299C12.453 5.49966 12.6 6.22533 12.6 6.99999C12.6 7.76533 12.453 8.48866 12.159 9.16999C11.865 9.85133 11.4637 10.4463 10.955 10.955C10.4463 11.4637 9.85366 11.865 9.17699 12.159C8.50033 12.453 7.77466 12.6 6.99999 12.6Z" fill="#AE7349"/>
</svg>
