<svg width="198" height="55" viewBox="0 0 198 55" fill="none" xmlns="http://www.w3.org/2000/svg">
<mask id="mask0_56_9" style="mask-type:luminance" maskUnits="userSpaceOnUse" x="0" y="0" width="198" height="55">
<path d="M0 0H197.327V54.265H0V0Z" fill="white"/>
</mask>
<g mask="url(#mask0_56_9)">
<path d="M197.327 47.6232V45.6962C196.287 45.3108 195.554 44.3087 195.554 43.1397C195.554 41.9706 196.3 40.9814 197.327 40.596V39.1957C196.287 38.8103 195.554 37.8082 195.554 36.6392C195.554 35.4701 196.3 34.4809 197.327 34.0955V32.6952C196.287 32.3098 195.554 31.3206 195.554 30.1515C195.554 28.9825 196.3 27.9804 197.327 27.595V26.2075C196.287 25.8093 195.554 24.8201 195.554 23.651C195.554 22.482 196.3 21.4799 197.327 21.0945V19.7071C196.287 19.3216 195.554 18.3196 195.554 17.1505C195.554 15.9815 196.3 14.9923 197.327 14.6069V13.2066C196.287 12.8212 195.554 11.8191 195.554 10.6629C195.554 9.49382 196.3 8.49177 197.327 8.10637V6.01233C194.038 5.97379 191.392 3.3145 191.379 0.0257111H163.026C162.782 3.10895 160.2 5.54985 157.04 5.54985C153.892 5.54985 151.297 3.10895 151.053 0.0257111H6.0637C6.05086 3.32734 3.36587 6.01233 0.0513873 6.01233C0.0385413 6.01233 0.012846 6.01233 0 6.01233V8.04213C1.13052 8.37615 1.93987 9.41674 1.93987 10.65C1.93987 11.8833 1.13052 12.9239 0 13.2579V14.5426C1.13052 14.8766 1.93987 15.9172 1.93987 17.1505C1.93987 18.3838 1.13052 19.4244 0 19.7584V21.0431C1.13052 21.3771 1.93987 22.4177 1.93987 23.651C1.93987 24.8843 1.13052 25.9249 0 26.2589V27.5436C1.13052 27.8776 1.93987 28.9182 1.93987 30.1515C1.93987 31.3848 1.13052 32.4254 0 32.7594V34.0313C1.13052 34.3653 1.93987 35.4187 1.93987 36.652C1.93987 37.8725 1.13052 38.9259 0 39.2599V40.5318C1.13052 40.8658 1.93987 41.9064 1.93987 43.1397C1.93987 44.373 1.13052 45.4136 0 45.7604V47.6232C0.025692 47.6232 0.0385413 47.6232 0.0513873 47.6232C3.37872 47.6232 6.0637 50.321 6.0637 53.6355C6.0637 53.6484 6.0637 53.6612 6.0637 53.6612H151.053C151.04 53.5071 151.027 53.34 151.027 53.173C151.027 49.8586 153.725 47.1607 157.04 47.1607C160.367 47.1607 163.052 49.8586 163.052 53.173C163.052 53.34 163.039 53.5071 163.026 53.6612H191.379C191.379 53.6612 191.379 53.6484 191.379 53.6355C191.379 50.3339 194.038 47.6617 197.327 47.6232Z" fill="#AE7249"/>
</g>
</svg>
