<svg width="13" height="13" viewBox="0 0 13 13" fill="none" xmlns="http://www.w3.org/2000/svg">
<path d="M2.27499 10.4C2.00686 10.4 1.77733 10.3047 1.58639 10.1141C1.39546 9.92357 1.29999 9.69449 1.29999 9.4269V7.78484C1.29999 7.69565 1.32901 7.61774 1.38706 7.55111C1.44511 7.4844 1.51972 7.44269 1.6109 7.42599C1.80988 7.35936 1.9703 7.24254 2.09218 7.07553C2.21405 6.90851 2.27499 6.71667 2.27499 6.50001C2.27499 6.28334 2.21405 6.0915 2.09218 5.92449C1.9703 5.75747 1.80988 5.64079 1.6109 5.57443C1.51972 5.55782 1.44511 5.51634 1.38706 5.44999C1.32901 5.38363 1.29999 5.30482 1.29999 5.21355V3.57243C1.29999 3.30503 1.39546 3.07613 1.58639 2.88573C1.77733 2.69525 2.00686 2.60001 2.27499 2.60001H10.725C10.9931 2.60001 11.2226 2.69529 11.4136 2.88587C11.6045 3.07645 11.7 3.30553 11.7 3.57311V5.21517C11.7 5.30437 11.671 5.38228 11.6129 5.4489C11.5549 5.51562 11.4803 5.55733 11.3891 5.57403C11.1901 5.64065 11.0297 5.75747 10.9078 5.92449C10.7859 6.0915 10.725 6.28334 10.725 6.50001C10.725 6.71667 10.7859 6.90851 10.9078 7.07553C11.0297 7.24254 11.1901 7.35922 11.3891 7.42558C11.4803 7.44219 11.5549 7.48367 11.6129 7.55003C11.671 7.61638 11.7 7.69519 11.7 7.78646V9.42758C11.7 9.69498 11.6045 9.92388 11.4136 10.1143C11.2226 10.3048 10.9931 10.4 10.725 10.4H2.27499ZM2.27499 9.42501H10.725V8.19271C10.4361 8.02119 10.2014 7.78646 10.0208 7.48855C9.84027 7.19063 9.74999 6.86112 9.74999 6.50001C9.74999 6.1389 9.84027 5.80938 10.0208 5.51146C10.2014 5.21355 10.4361 4.97883 10.725 4.8073V3.57501H2.27499V4.8073C2.56388 4.97883 2.7986 5.21355 2.97915 5.51146C3.15971 5.80938 3.24999 6.1389 3.24999 6.50001C3.24999 6.86112 3.15971 7.19063 2.97915 7.48855C2.7986 7.78646 2.56388 8.02119 2.27499 8.19271V9.42501ZM6.49714 8.77501C6.63446 8.77501 6.75051 8.72856 6.8453 8.63566C6.94009 8.54277 6.98749 8.42766 6.98749 8.29035C6.98749 8.15304 6.94104 8.03699 6.84814 7.94219C6.75525 7.8474 6.64014 7.80001 6.50283 7.80001C6.36552 7.80001 6.24947 7.84645 6.15468 7.93935C6.05988 8.03225 6.01249 8.14735 6.01249 8.28466C6.01249 8.42198 6.05894 8.53803 6.15183 8.63282C6.24473 8.72761 6.35983 8.77501 6.49714 8.77501ZM6.49714 6.98751C6.63446 6.98751 6.75051 6.94106 6.8453 6.84816C6.94009 6.75527 6.98749 6.64016 6.98749 6.50285C6.98749 6.36554 6.94104 6.24949 6.84814 6.15469C6.75525 6.0599 6.64014 6.01251 6.50283 6.01251C6.36552 6.01251 6.24947 6.05895 6.15468 6.15185C6.05988 6.24475 6.01249 6.35985 6.01249 6.49716C6.01249 6.63448 6.05894 6.75053 6.15183 6.84532C6.24473 6.94011 6.35983 6.98751 6.49714 6.98751ZM6.49714 5.20001C6.63446 5.20001 6.75051 5.15356 6.8453 5.06066C6.94009 4.96777 6.98749 4.85266 6.98749 4.71535C6.98749 4.57804 6.94104 4.46199 6.84814 4.36719C6.75525 4.2724 6.64014 4.22501 6.50283 4.22501C6.36552 4.22501 6.24947 4.27145 6.15468 4.36435C6.05988 4.45725 6.01249 4.57235 6.01249 4.70966C6.01249 4.84697 6.05894 4.96303 6.15183 5.05782C6.24473 5.15261 6.35983 5.20001 6.49714 5.20001Z" fill="#AE7349"/>
</svg>
