<svg xmlns="http://www.w3.org/2000/svg" xmlns:xlink="http://www.w3.org/1999/xlink" width="100" zoomAndPan="magnify" viewBox="0 0 75 74.999997" height="100" preserveAspectRatio="xMidYMid meet" version="1.0"><defs><clipPath id="212aa82fdc"><path d="M 7.5 29.335938 L 67.5 29.335938 L 67.5 45.835938 L 7.5 45.835938 Z M 7.5 29.335938 " clip-rule="nonzero"/></clipPath></defs><g clip-path="url(#212aa82fdc)"><path fill="#ae7249" d="M 67.5 43.816406 L 67.5 43.230469 C 67.183594 43.113281 66.960938 42.808594 66.960938 42.453125 C 66.960938 42.097656 67.1875 41.796875 67.5 41.679688 L 67.5 41.253906 C 67.183594 41.136719 66.960938 40.832031 66.960938 40.476562 C 66.960938 40.121094 67.1875 39.820312 67.5 39.703125 L 67.5 39.277344 C 67.183594 39.160156 66.960938 38.859375 66.960938 38.503906 C 66.960938 38.148438 67.1875 37.84375 67.5 37.726562 L 67.5 37.304688 C 67.183594 37.183594 66.960938 36.882812 66.960938 36.527344 C 66.960938 36.171875 67.1875 35.867188 67.5 35.75 L 67.5 35.328125 C 67.183594 35.210938 66.960938 34.90625 66.960938 34.550781 C 66.960938 34.195312 67.1875 33.894531 67.5 33.777344 L 67.5 33.351562 C 67.183594 33.234375 66.960938 32.929688 66.960938 32.578125 C 66.960938 32.222656 67.1875 31.917969 67.5 31.800781 L 67.5 31.164062 C 66.5 31.152344 65.695312 30.34375 65.691406 29.34375 L 57.070312 29.34375 C 56.996094 30.28125 56.210938 31.023438 55.25 31.023438 C 54.292969 31.023438 53.503906 30.28125 53.429688 29.34375 L 9.34375 29.34375 C 9.339844 30.347656 8.523438 31.164062 7.515625 31.164062 C 7.511719 31.164062 7.503906 31.164062 7.5 31.164062 L 7.5 31.78125 C 7.84375 31.882812 8.089844 32.199219 8.089844 32.574219 C 8.089844 32.949219 7.84375 33.265625 7.5 33.367188 L 7.5 33.757812 C 7.84375 33.859375 8.089844 34.175781 8.089844 34.550781 C 8.089844 34.925781 7.84375 35.242188 7.5 35.34375 L 7.5 35.734375 C 7.84375 35.835938 8.089844 36.152344 8.089844 36.527344 C 8.089844 36.902344 7.84375 37.21875 7.5 37.320312 L 7.5 37.710938 C 7.84375 37.8125 8.089844 38.128906 8.089844 38.503906 C 8.089844 38.878906 7.84375 39.195312 7.5 39.296875 L 7.5 39.683594 C 7.84375 39.785156 8.089844 40.105469 8.089844 40.480469 C 8.089844 40.851562 7.84375 41.171875 7.5 41.273438 L 7.5 41.660156 C 7.84375 41.761719 8.089844 42.078125 8.089844 42.453125 C 8.089844 42.828125 7.84375 43.144531 7.5 43.25 L 7.5 43.816406 C 7.507812 43.816406 7.511719 43.816406 7.515625 43.816406 C 8.527344 43.816406 9.34375 44.636719 9.34375 45.644531 C 9.34375 45.648438 9.34375 45.652344 9.34375 45.652344 L 53.429688 45.652344 C 53.425781 45.605469 53.421875 45.554688 53.421875 45.503906 C 53.421875 44.496094 54.242188 43.675781 55.25 43.675781 C 56.261719 43.675781 57.078125 44.496094 57.078125 45.503906 C 57.078125 45.554688 57.074219 45.605469 57.070312 45.652344 L 65.691406 45.652344 C 65.691406 45.652344 65.691406 45.648438 65.691406 45.644531 C 65.691406 44.640625 66.5 43.828125 67.5 43.816406 Z M 67.5 43.816406 " fill-opacity="1" fill-rule="nonzero"/></g><path fill="#f4e4c9" d="M 61.316406 34.527344 C 61.296875 34.535156 61.265625 34.550781 61.242188 34.570312 C 61.210938 34.601562 61.195312 34.628906 61.148438 34.757812 C 60.949219 35.304688 60.6875 35.738281 60.304688 36.160156 C 59.855469 36.660156 59.242188 37.066406 58.59375 37.289062 C 58.476562 37.332031 58.4375 37.359375 58.402344 37.425781 C 58.382812 37.476562 58.378906 37.515625 58.398438 37.574219 C 58.417969 37.644531 58.472656 37.6875 58.589844 37.726562 C 59.023438 37.871094 59.417969 38.089844 59.832031 38.40625 C 59.96875 38.511719 60.335938 38.875 60.457031 39.027344 C 60.746094 39.382812 60.972656 39.78125 61.125 40.195312 C 61.144531 40.253906 61.171875 40.320312 61.179688 40.347656 C 61.226562 40.472656 61.351562 40.527344 61.464844 40.476562 C 61.53125 40.445312 61.558594 40.40625 61.609375 40.269531 C 61.765625 39.820312 62.023438 39.363281 62.320312 39.007812 C 62.445312 38.859375 62.675781 38.625 62.804688 38.511719 C 63.195312 38.175781 63.667969 37.902344 64.125 37.742188 C 64.246094 37.699219 64.28125 37.683594 64.3125 37.652344 L 64.355469 37.613281 L 64.355469 37.402344 L 64.316406 37.367188 C 64.296875 37.347656 64.261719 37.324219 64.242188 37.316406 C 64.125 37.277344 63.875 37.179688 63.734375 37.109375 C 63.480469 36.988281 63.226562 36.835938 63.007812 36.667969 C 62.707031 36.445312 62.359375 36.085938 62.140625 35.773438 C 61.929688 35.476562 61.726562 35.089844 61.613281 34.757812 C 61.59375 34.703125 61.570312 34.640625 61.558594 34.625 C 61.515625 34.539062 61.414062 34.5 61.316406 34.527344 Z M 61.316406 34.527344 " fill-opacity="1" fill-rule="nonzero"/></svg>