<svg width="15" height="15" viewBox="0 0 15 15" fill="none" xmlns="http://www.w3.org/2000/svg">
<mask id="path-1-inside-1_118_45" fill="white">
<path d="M14.8077 7.2687C14.8077 7.50669 14.6349 7.72919 14.3673 7.83618H14.3663C11.3594 9.04463 8.98097 11.3935 7.83968 14.2824C7.78412 14.4249 7.61285 14.5244 7.42272 14.5244C7.32485 14.5244 7.23106 14.4984 7.15205 14.4499C7.08425 14.4084 7.03226 14.3479 7.00576 14.2809C5.85733 11.3745 3.46057 9.01813 0.431233 7.81668C0.165153 7.71069 0 7.49819 0 7.2622C0 7.14921 0.0372106 7.04221 0.108573 6.94622C0.187582 6.84222 0.298194 6.76022 0.430724 6.70823C3.46057 5.50627 5.85682 3.15037 7.00627 0.24249C7.06183 0.0999954 7.23361 0 7.42323 0C7.51957 0 7.61387 0.0264985 7.69389 0.0744965C7.76169 0.115995 7.81368 0.176493 7.84019 0.24299C8.97995 3.13987 11.3578 5.49328 14.3642 6.69873C14.6375 6.80872 14.8077 7.02721 14.8077 7.2687Z"/>
</mask>
<path d="M14.8077 7.2687C14.8077 7.50669 14.6349 7.72919 14.3673 7.83618H14.3663C11.3594 9.04463 8.98097 11.3935 7.83968 14.2824C7.78412 14.4249 7.61285 14.5244 7.42272 14.5244C7.32485 14.5244 7.23106 14.4984 7.15205 14.4499C7.08425 14.4084 7.03226 14.3479 7.00576 14.2809C5.85733 11.3745 3.46057 9.01813 0.431233 7.81668C0.165153 7.71069 0 7.49819 0 7.2622C0 7.14921 0.0372106 7.04221 0.108573 6.94622C0.187582 6.84222 0.298194 6.76022 0.430724 6.70823C3.46057 5.50627 5.85682 3.15037 7.00627 0.24249C7.06183 0.0999954 7.23361 0 7.42323 0C7.51957 0 7.61387 0.0264985 7.69389 0.0744965C7.76169 0.115995 7.81368 0.176493 7.84019 0.24299C8.97995 3.13987 11.3578 5.49328 14.3642 6.69873C14.6375 6.80872 14.8077 7.02721 14.8077 7.2687Z" fill="#AE7349" fill-opacity="0.7" stroke="#AE7349" mask="url(#path-1-inside-1_118_45)"/>
</svg>
