<svg width="112" height="23" viewBox="0 0 112 23" fill="none" xmlns="http://www.w3.org/2000/svg">
<path d="M40.0592 2.4177C39.0891 1.69014 37.8817 1.258 36.5762 1.258C34.12 1.258 32.0186 2.78406 31.1711 4.94094L33.2635 5.98714C33.7253 4.5604 35.0837 3.53743 36.6742 3.58129C38.5718 3.63418 40.0592 5.23765 40.0592 7.13524V8.67033C40.0592 8.96832 39.7367 9.14892 39.4787 9.00057C39.4761 9.00057 39.4748 8.99799 39.4722 8.9967C38.6196 8.50521 37.6301 8.224 36.5762 8.224C35.5223 8.224 34.5328 8.50521 33.6801 8.9967C32.9977 9.39015 32.403 9.91906 31.9309 10.546C31.1466 11.5909 30.7054 12.9131 30.7789 14.3347C30.9312 17.2811 33.3241 19.674 36.2705 19.8263C37.4431 19.8869 38.5473 19.5966 39.4851 19.0535C39.7406 18.9065 40.0592 19.0923 40.0592 19.3864V19.834H42.3812V7.063C42.3812 5.16412 41.4692 3.47679 40.0592 2.4177ZM36.5762 17.512C34.6528 17.512 33.0932 15.9524 33.0932 14.029C33.0932 13.313 33.3086 12.6474 33.6801 12.0953C34.3045 11.1613 35.3688 10.546 36.5762 10.546C37.7836 10.546 38.8479 11.1613 39.4722 12.0953C39.8438 12.6474 40.0592 13.313 40.0592 14.029C40.0592 15.9524 38.4996 17.512 36.5762 17.512Z" fill="#AE7349"/>
<path d="M56.3131 2.4177C55.343 1.69014 54.1356 1.258 52.8301 1.258C50.3739 1.258 48.2725 2.78406 47.425 4.94094L49.5174 5.98714C49.9792 4.5604 51.3376 3.53743 52.9281 3.58129C54.8257 3.63418 56.3131 5.23765 56.3131 7.13524V8.67033C56.3131 8.96832 55.9906 9.14892 55.7326 9.00057C55.73 9.00057 55.7287 8.99799 55.7262 8.9967C54.8735 8.50521 53.884 8.224 52.8301 8.224C51.7762 8.224 50.7867 8.50521 49.9341 8.9967C49.2516 9.39015 48.657 9.91906 48.1848 10.546C47.4005 11.5909 46.9593 12.9131 47.0328 14.3347C47.1851 17.2811 49.578 19.674 52.5244 19.8263C53.697 19.8869 54.8012 19.5966 55.7391 19.0535C55.9945 18.9065 56.3131 19.0923 56.3131 19.3864V19.834H58.6351V7.063C58.6351 5.16412 57.7231 3.47679 56.3131 2.4177ZM52.8301 17.512C50.9067 17.512 49.3471 15.9524 49.3471 14.029C49.3471 13.313 49.5625 12.6474 49.9341 12.0953C50.5584 11.1613 51.6227 10.546 52.8301 10.546C54.0375 10.546 55.1018 11.1613 55.7262 12.0953C56.0977 12.6474 56.3131 13.313 56.3131 14.029C56.3131 15.9524 54.7535 17.512 52.8301 17.512Z" fill="#AE7349"/>
<path d="M46.1222 1H43.2842V20.092H46.1222V1Z" fill="#AE7349"/>
<path d="M65.6012 1C64.5318 1 63.4804 1.28251 62.5594 1.81657C62.5091 1.84624 62.4639 1.82818 62.442 1.81657C62.4226 1.80496 62.3762 1.77142 62.3762 1.70434V1H59.5382V20.092H62.3762V7.063C62.3762 6.18451 62.7232 5.36407 63.3527 4.75132C63.9823 4.13857 64.8117 3.81607 65.6928 3.83929C67.4201 3.88702 68.8262 5.36536 68.8262 7.13524V20.092H71.6642V7.063C71.6642 6.22192 71.4939 5.40535 71.1585 4.6378C70.1936 2.42803 68.0122 1 65.6012 1Z" fill="#AE7349"/>
<path d="M75.1472 5.51758V1H72.3092V14.029C72.3092 15.955 73.1929 17.7236 74.7344 18.8807C75.7909 19.6727 77.0487 20.092 78.3722 20.092H78.6302V17.254H78.3722C76.5933 17.254 75.1472 15.8079 75.1472 14.029V8.60842C75.1472 8.53876 75.204 8.482 75.2736 8.482H78.6302V5.644H75.2736C75.204 5.644 75.1472 5.58724 75.1472 5.51758Z" fill="#AE7349"/>
<path d="M82.1131 5.64401H79.2751V20.092H82.1131V5.64401Z" fill="#AE7349"/>
<path d="M91.6862 10.3461C90.7161 9.56044 89.4932 9.127 88.2406 9.127C86.7829 9.127 85.5961 7.9402 85.5961 6.4825C85.5961 5.0248 86.7829 3.838 88.2406 3.838C89.6983 3.838 90.8851 5.0248 90.8851 6.4825C90.8851 6.66439 90.8671 6.84112 90.8322 7.0114L90.7677 7.321H93.6625L93.6883 7.09267C93.7102 6.89659 93.7218 6.69148 93.7218 6.4825C93.7218 3.46003 91.2618 1 88.2393 1C85.2169 1 82.7568 3.46003 82.7568 6.4825C82.7568 8.1466 83.4999 9.69976 84.7938 10.7459C85.7638 11.5316 86.9867 11.965 88.2393 11.965C89.697 11.965 90.8838 13.1518 90.8838 14.6095C90.8838 16.0672 89.697 17.254 88.2393 17.254C86.7816 17.254 85.5948 16.0672 85.5948 14.6095C85.5948 14.4276 85.6129 14.2496 85.6477 14.0819L85.7122 13.771H82.8175L82.7917 13.9993C82.7697 14.1954 82.7581 14.4005 82.7581 14.6095C82.7581 17.632 85.2182 20.092 88.2406 20.092C91.2631 20.092 93.7231 17.632 93.7231 14.6095C93.7231 12.9467 92.9801 11.3922 91.6862 10.3461Z" fill="#AE7349"/>
<path d="M27.2882 1.70562C27.2882 1.99974 26.9696 2.1855 26.7142 2.03844C25.7763 1.49535 24.6721 1.2051 23.4995 1.26573C20.5531 1.41795 18.1602 3.81091 18.0079 6.75727C17.9344 8.17885 18.3756 9.5011 19.1599 10.546C19.6321 11.1729 20.2267 11.7018 20.9092 12.0953C21.7618 12.5868 22.7513 12.868 23.8052 12.868C24.8591 12.868 25.8486 12.5868 26.7013 12.0953C26.7077 12.0927 26.7064 12.0888 26.7309 12.0863C27.0276 12.0488 27.2882 12.2901 27.2882 12.5906V13.9568C27.2882 15.8543 25.8008 17.4578 23.9032 17.5107C22.4533 17.5507 21.1955 16.7032 20.6357 15.4725L18.4246 16.2091C19.285 18.335 21.371 19.834 23.8052 19.834C25.1107 19.834 26.3181 19.4018 27.2882 18.6743C28.6982 17.6152 29.6102 15.9279 29.6102 14.029V1.25799H27.2882V1.70562ZM28.4492 7.06686C28.4492 7.29648 28.2957 7.50288 28.0609 7.59834C26.3065 8.31687 24.9211 9.7062 24.2528 11.4309C24.1896 11.5961 24.0142 11.707 23.8168 11.707C23.7175 11.707 23.6246 11.6786 23.5485 11.6309C23.4724 11.5832 23.413 11.5135 23.3808 11.4309C22.7087 9.69717 21.3116 8.30139 19.5443 7.58673C19.3121 7.49256 19.1612 7.29003 19.1612 7.06299C19.1612 6.94947 19.1986 6.8424 19.2657 6.75081C19.3328 6.66051 19.4282 6.5857 19.5443 6.53926C21.3116 5.8246 22.7087 4.42882 23.3808 2.69506C23.444 2.52994 23.6194 2.41899 23.8168 2.41899C23.9149 2.41899 24.0077 2.44737 24.0851 2.4951C24.1612 2.54283 24.2206 2.6125 24.2528 2.69506C24.9198 4.42366 26.3052 5.81685 28.0596 6.53409C28.2957 6.63084 28.4492 6.83595 28.4492 7.06686Z" fill="#AE7349"/>
</svg>
