<svg width="20" height="31" viewBox="0 0 20 31" fill="none" xmlns="http://www.w3.org/2000/svg">
<path d="M15.4705 0.000264878V1.05672C15.4705 1.21372 15.3625 1.29171 15.3161 1.31821C15.2702 1.34421 15.1484 1.39671 15.0118 1.31921C13.3342 0.36625 11.4192 -0.0852311 9.47404 0.0132648C7.01866 0.13776 4.69734 1.15672 2.93825 2.88215C1.17917 4.60758 0.140334 6.88448 0.0134109 9.29288C-0.107905 11.5903 0.597054 13.8637 1.99831 15.6951C2.82101 16.7666 3.83436 17.647 5.01133 18.3125C6.52218 19.167 8.24762 19.6185 10.0006 19.6185C11.7536 19.6185 13.4474 19.175 14.9486 18.336C15.074 18.3295 15.1953 18.371 15.2936 18.456C15.4063 18.5535 15.4705 18.6935 15.4705 18.8405V21.0724C15.4705 24.0148 13.086 26.4737 10.1545 26.5537C7.94994 26.6122 5.93497 25.3807 5.02255 23.4143L4.89919 23.1483L0.598582 24.5538L0.731113 24.8747C1.4692 26.6632 2.72009 28.1881 4.34868 29.2846C6.01601 30.407 7.97033 31 10.0001 31C12.1828 31 14.2574 30.3225 16.0001 29.0401C17.2148 28.1451 18.221 26.9722 18.9107 25.6477C19.6335 24.2593 20 22.7598 20 21.1909V0.000264878H15.4695H15.4705ZM17.4044 9.81536C17.4044 10.0534 17.2316 10.2758 16.964 10.3828H16.963C13.9561 11.5913 11.5777 13.9402 10.4364 16.8291C10.3808 16.9716 10.2096 17.0711 10.0194 17.0711C9.92158 17.0711 9.82779 17.0451 9.74878 16.9966C9.68099 16.9551 9.62899 16.8946 9.60249 16.8276C8.45406 13.9212 6.0573 11.5648 3.02796 10.3633C2.76188 10.2573 2.59673 10.0449 2.59673 9.80886C2.59673 9.69587 2.63394 9.58887 2.70531 9.49288C2.78431 9.38888 2.89493 9.30688 3.02746 9.25489C6.0573 8.05293 8.45355 5.69703 9.603 2.78915C9.65856 2.64666 9.83034 2.54666 10.02 2.54666C10.1163 2.54666 10.2106 2.57316 10.2906 2.62116C10.3584 2.66266 10.4104 2.72315 10.4369 2.78965C11.5767 5.68653 13.9546 8.03994 16.961 9.24539C17.2342 9.35538 17.4044 9.57337 17.4044 9.81486V9.81536Z" fill="#AE7349"/>
</svg>
