<svg width="14" height="14" viewBox="0 0 14 14" fill="none" xmlns="http://www.w3.org/2000/svg">
<path d="M2.44999 11.55V6.30001C2.15833 6.30001 1.91041 6.197 1.70624 5.99099C1.50208 5.78507 1.39999 5.5375 1.39999 5.24826V4.19637C1.39999 3.90713 1.50281 3.66043 1.70843 3.45626C1.91406 3.2521 2.16124 3.15001 2.44999 3.15001H4.08333C4.03472 3.04307 3.99826 2.93155 3.97395 2.81547C3.94965 2.69948 3.93749 2.57766 3.93749 2.45001C3.93749 1.9639 4.10763 1.55071 4.44791 1.21043C4.78819 0.870151 5.20138 0.700012 5.68749 0.700012C5.94309 0.700012 6.18197 0.753484 6.40412 0.860429C6.62637 0.967373 6.82499 1.11321 6.99999 1.29793C7.16527 1.11321 7.36215 0.967373 7.59062 0.860429C7.81909 0.753484 8.05972 0.700012 8.31249 0.700012C8.7986 0.700012 9.2118 0.870151 9.55208 1.21043C9.89235 1.55071 10.0625 1.9639 10.0625 2.45001C10.0625 2.56668 10.0455 2.68335 10.0115 2.80001C9.97742 2.91668 9.94583 3.03335 9.91666 3.15001H11.55C11.8387 3.15001 12.0859 3.25302 12.2916 3.45903C12.4972 3.66495 12.6 3.91253 12.6 4.20176V5.25366C12.6 5.54289 12.4972 5.7896 12.2916 5.99376C12.0859 6.19793 11.8387 6.30001 11.55 6.30001V11.55C11.55 11.8388 11.4472 12.0859 11.2416 12.2916C11.0359 12.4972 10.7887 12.6 10.5 12.6H3.49999C3.21124 12.6 2.96406 12.4972 2.75843 12.2916C2.55281 12.0859 2.44999 11.8388 2.44999 11.55ZM8.31249 1.75001C8.11416 1.75001 7.94791 1.8171 7.81374 1.95126C7.67958 2.08543 7.61249 2.25168 7.61249 2.45001C7.61249 2.64835 7.67958 2.8146 7.81374 2.94876C7.94791 3.08293 8.11416 3.15001 8.31249 3.15001C8.51083 3.15001 8.67708 3.08293 8.81124 2.94876C8.94541 2.8146 9.01249 2.64835 9.01249 2.45001C9.01249 2.25168 8.94541 2.08543 8.81124 1.95126C8.67708 1.8171 8.51083 1.75001 8.31249 1.75001ZM4.98749 2.45001C4.98749 2.64835 5.05458 2.8146 5.18874 2.94876C5.32291 3.08293 5.48916 3.15001 5.68749 3.15001C5.88583 3.15001 6.05208 3.08293 6.18624 2.94876C6.32041 2.8146 6.38749 2.64835 6.38749 2.45001C6.38749 2.25168 6.32041 2.08543 6.18624 1.95126C6.05208 1.8171 5.88583 1.75001 5.68749 1.75001C5.48916 1.75001 5.32291 1.8171 5.18874 1.95126C5.05458 2.08543 4.98749 2.25168 4.98749 2.45001ZM2.44999 4.20001V5.25001H6.47499V4.20001H2.44999ZM6.47499 11.55V6.30001H3.49999V11.55H6.47499ZM7.52499 11.55H10.5V6.30001H7.52499V11.55ZM11.55 5.25001V4.20001H7.52499V5.25001H11.55Z" fill="#AE7349"/>
</svg>
